<mxfile host="app.diagrams.net" agent="Mozilla/5.0 (Windows NT 10.0; Win64; x64) AppleWebKit/537.36 (KHTML, like Gecko) Chrome/132.0.0.0 Safari/537.36" version="26.0.16">
  <diagram name="페이지-1" id="_U9PC9dXWjT8wsZpJU9C">
    <mxGraphModel dx="989" dy="532" grid="1" gridSize="10" guides="1" tooltips="1" connect="1" arrows="1" fold="1" page="1" pageScale="1" pageWidth="827" pageHeight="1169" math="0" shadow="0">
      <root>
        <mxCell id="0" />
        <mxCell id="1" parent="0" />
        <mxCell id="wW_XgSyNMcar4sYFSDHJ-5" value="" style="edgeStyle=orthogonalEdgeStyle;rounded=0;orthogonalLoop=1;jettySize=auto;html=1;endArrow=none;startFill=1;startArrow=classic;" edge="1" parent="1" source="wW_XgSyNMcar4sYFSDHJ-3">
          <mxGeometry relative="1" as="geometry">
            <mxPoint x="414" y="60" as="targetPoint" />
          </mxGeometry>
        </mxCell>
        <mxCell id="wW_XgSyNMcar4sYFSDHJ-7" value="" style="edgeStyle=orthogonalEdgeStyle;rounded=0;orthogonalLoop=1;jettySize=auto;html=1;" edge="1" parent="1" source="wW_XgSyNMcar4sYFSDHJ-3" target="wW_XgSyNMcar4sYFSDHJ-6">
          <mxGeometry relative="1" as="geometry" />
        </mxCell>
        <mxCell id="wW_XgSyNMcar4sYFSDHJ-3" value="D1([Sx, 1])" style="text;html=1;align=center;verticalAlign=middle;resizable=0;points=[];autosize=1;strokeColor=none;fillColor=none;" vertex="1" parent="1">
          <mxGeometry x="374" y="140" width="80" height="30" as="geometry" />
        </mxCell>
        <mxCell id="wW_XgSyNMcar4sYFSDHJ-6" value="D2([Sx, 2])" style="text;html=1;align=center;verticalAlign=middle;resizable=0;points=[];autosize=1;strokeColor=none;fillColor=none;" vertex="1" parent="1">
          <mxGeometry x="374" y="250" width="80" height="30" as="geometry" />
        </mxCell>
        <mxCell id="wW_XgSyNMcar4sYFSDHJ-8" value="D3([Sx, 2], [Sy, 1])" style="text;html=1;align=center;verticalAlign=middle;resizable=0;points=[];autosize=1;strokeColor=none;fillColor=none;" vertex="1" parent="1">
          <mxGeometry x="280" y="360" width="120" height="30" as="geometry" />
        </mxCell>
        <mxCell id="wW_XgSyNMcar4sYFSDHJ-9" value="D4([Sx, 2], [Sz, 1])" style="text;html=1;align=center;verticalAlign=middle;resizable=0;points=[];autosize=1;strokeColor=none;fillColor=none;" vertex="1" parent="1">
          <mxGeometry x="420" y="360" width="120" height="30" as="geometry" />
        </mxCell>
        <mxCell id="wW_XgSyNMcar4sYFSDHJ-10" value="" style="endArrow=classic;html=1;rounded=0;entryX=0.525;entryY=0;entryDx=0;entryDy=0;entryPerimeter=0;exitX=0.488;exitY=1.033;exitDx=0;exitDy=0;exitPerimeter=0;" edge="1" parent="1" source="wW_XgSyNMcar4sYFSDHJ-6" target="wW_XgSyNMcar4sYFSDHJ-8">
          <mxGeometry width="50" height="50" relative="1" as="geometry">
            <mxPoint x="410" y="300" as="sourcePoint" />
            <mxPoint x="440" y="370" as="targetPoint" />
          </mxGeometry>
        </mxCell>
        <mxCell id="wW_XgSyNMcar4sYFSDHJ-11" value="" style="endArrow=classic;html=1;rounded=0;exitX=0.49;exitY=1.009;exitDx=0;exitDy=0;exitPerimeter=0;entryX=0.488;entryY=-0.009;entryDx=0;entryDy=0;entryPerimeter=0;" edge="1" parent="1" source="wW_XgSyNMcar4sYFSDHJ-6" target="wW_XgSyNMcar4sYFSDHJ-9">
          <mxGeometry width="50" height="50" relative="1" as="geometry">
            <mxPoint x="390" y="420" as="sourcePoint" />
            <mxPoint x="440" y="370" as="targetPoint" />
          </mxGeometry>
        </mxCell>
        <mxCell id="wW_XgSyNMcar4sYFSDHJ-21" value="D5([Sx, 3], [Sy, 1], [Sz, 1])" style="text;html=1;align=center;verticalAlign=middle;resizable=0;points=[];autosize=1;strokeColor=none;fillColor=none;" vertex="1" parent="1">
          <mxGeometry x="334" y="466" width="160" height="30" as="geometry" />
        </mxCell>
        <mxCell id="wW_XgSyNMcar4sYFSDHJ-22" value="" style="endArrow=classic;html=1;rounded=0;exitX=0.58;exitY=0.933;exitDx=0;exitDy=0;exitPerimeter=0;entryX=0.5;entryY=-0.033;entryDx=0;entryDy=0;entryPerimeter=0;" edge="1" parent="1" source="wW_XgSyNMcar4sYFSDHJ-8">
          <mxGeometry width="50" height="50" relative="1" as="geometry">
            <mxPoint x="327" y="387" as="sourcePoint" />
            <mxPoint x="414" y="466" as="targetPoint" />
          </mxGeometry>
        </mxCell>
        <mxCell id="wW_XgSyNMcar4sYFSDHJ-23" value="" style="endArrow=classic;html=1;rounded=0;entryX=0.525;entryY=0;entryDx=0;entryDy=0;entryPerimeter=0;exitX=0.488;exitY=0.91;exitDx=0;exitDy=0;exitPerimeter=0;" edge="1" parent="1" source="wW_XgSyNMcar4sYFSDHJ-9">
          <mxGeometry width="50" height="50" relative="1" as="geometry">
            <mxPoint x="504" y="387" as="sourcePoint" />
            <mxPoint x="414" y="466" as="targetPoint" />
          </mxGeometry>
        </mxCell>
        <mxCell id="wW_XgSyNMcar4sYFSDHJ-24" value="1. Sx가 쓰기 연산 처리" style="text;html=1;align=center;verticalAlign=middle;resizable=0;points=[];autosize=1;strokeColor=none;fillColor=none;" vertex="1" parent="1">
          <mxGeometry x="440" y="80" width="140" height="30" as="geometry" />
        </mxCell>
        <mxCell id="wW_XgSyNMcar4sYFSDHJ-25" value="2. Sx가 쓰기 연산 처리" style="text;html=1;align=center;verticalAlign=middle;resizable=0;points=[];autosize=1;strokeColor=none;fillColor=none;" vertex="1" parent="1">
          <mxGeometry x="440" y="200" width="140" height="30" as="geometry" />
        </mxCell>
        <mxCell id="wW_XgSyNMcar4sYFSDHJ-26" value="3. Sy가 쓰기 연산 처리" style="text;html=1;align=center;verticalAlign=middle;resizable=0;points=[];autosize=1;strokeColor=none;fillColor=none;" vertex="1" parent="1">
          <mxGeometry x="210" y="300" width="140" height="30" as="geometry" />
        </mxCell>
        <mxCell id="wW_XgSyNMcar4sYFSDHJ-27" value="4. Sz가 쓰기 연산 처리" style="text;html=1;align=center;verticalAlign=middle;resizable=0;points=[];autosize=1;strokeColor=none;fillColor=none;" vertex="1" parent="1">
          <mxGeometry x="480" y="300" width="140" height="30" as="geometry" />
        </mxCell>
        <mxCell id="wW_XgSyNMcar4sYFSDHJ-28" value="&lt;span style=&quot;background-color: transparent; color: light-dark(rgb(0, 0, 0), rgb(255, 255, 255));&quot;&gt;5&lt;/span&gt;&lt;span style=&quot;background-color: transparent; color: light-dark(rgb(0, 0, 0), rgb(255, 255, 255));&quot;&gt;. 충돌 해소된 데이터를 Sx가 기록&lt;/span&gt;" style="text;html=1;align=center;verticalAlign=middle;resizable=0;points=[];autosize=1;strokeColor=none;fillColor=none;" vertex="1" parent="1">
          <mxGeometry x="480" y="420" width="210" height="30" as="geometry" />
        </mxCell>
      </root>
    </mxGraphModel>
  </diagram>
</mxfile>
